<?xml version="1.0" encoding="UTF-8"?>
<svg id="_レイヤー_1" xmlns="http://www.w3.org/2000/svg" version="1.1" viewBox="0 0 2003.3 500">
  <!-- Generator: Adobe Illustrator 29.8.3, SVG Export Plug-In . SVG Version: 2.1.1 Build 3)  -->
  <defs>
    <style>
      .st0 {
        fill: #2c3f4d;
      }
    </style>
  </defs>
  <path class="st0" d="M484.2,439.1V133.3c0-3.7-3-6.5-6.5-6.5h-100.2c-3.7,0-6.5-3-6.5-6.5v-44.3c0-3.7,3-6.5,6.5-6.5h276.2c3.7,0,6.5,3,6.5,6.5v44.3c0,3.7-3,6.5-6.5,6.5h-99.8c-3.7,0-6.5,3-6.5,6.5v305.7c0,3.7-3,6.5-6.5,6.5h-49.7c-3.7,0-6.5-3-6.5-6.5h-.4Z"/>
  <path class="st0" d="M1367.1,934.6l61.7-161.7c.9-2.3,3.1-3.8,5.5-3.8h17.1c2.5,0,4.7,1.5,5.5,3.8l61.7,161.7c1.5,3.9-1.4,8-5.5,8h-19.7c-2.5,0-4.7-1.6-5.6-4l-10.6-30.3c-.8-2.4-3.1-4-5.6-4h-58.3c-2.5,0-4.7,1.6-5.6,4l-10.6,30.3c-.8,2.4-3.1,4-5.6,4h-19c-4.1,0-7-4.2-5.5-8h0ZM1427,878h31.3c4.1,0,6.9-4,5.6-7.9l-15.5-44.1c-1.8-5.3-9.3-5.3-11.1,0l-15.8,44.1c-1.4,3.9,1.5,7.9,5.6,7.9h-.1Z"/>
  <path class="st0" d="M1541.8,936.8v-161.8c0-3.3,2.6-5.9,5.9-5.9h16.7c3.3,0,5.9,2.6,5.9,5.9v53.5c0,5.5,6.8,8,10.4,3.9l52.8-61.3c1.1-1.3,2.8-2.1,4.5-2.1h20.2c5.1,0,7.8,6,4.5,9.8l-58.7,67.4c-1.9,2.1-1.9,5.3-.2,7.5l61.5,79.4c3,3.9.2,9.5-4.7,9.5h-21.6c-1.9,0-3.6-.9-4.8-2.4l-53.3-72c-3.4-4.6-10.7-2.2-10.7,3.5v64.9c0,3.3-2.6,5.9-5.9,5.9h-16.7c-3.3,0-5.9-2.6-5.9-5.9v.2Z"/>
  <path class="st0" d="M1681,934.6l61.7-161.7c.9-2.3,3.1-3.8,5.5-3.8h17.1c2.5,0,4.7,1.5,5.5,3.8l61.7,161.7c1.5,3.9-1.4,8-5.5,8h-19.7c-2.5,0-4.7-1.6-5.6-4l-10.6-30.3c-.8-2.4-3.1-4-5.6-4h-58.3c-2.5,0-4.7,1.6-5.6,4l-10.6,30.3c-.8,2.4-3.1,4-5.6,4h-19c-4.1,0-7-4.2-5.5-8h0ZM1740.9,878h31.3c4.1,0,6.9-4,5.6-7.9l-15.5-44.1c-1.8-5.3-9.3-5.3-11.1,0l-15.8,44.1c-1.4,3.9,1.5,7.9,5.6,7.9h0Z"/>
  <path class="st0" d="M1876.6,936.8v-66.1c0-1-.3-2.1-.8-3l-52.3-89.6c-2.3-3.9.5-8.9,5.1-8.9h19.5c2.1,0,4.1,1.1,5.1,3l32.8,56.8c2.3,4,8,3.9,10.3,0l32.4-56.7c1.1-1.8,3-3,5.1-3h20c4.6,0,7.4,5,5.1,8.9l-52.5,89.6c-.5.9-.8,1.9-.8,3v66.1c0,3.3-2.6,5.9-5.9,5.9h-17.2c-3.3,0-5.9-2.6-5.9-5.9h0Z"/>
  <path class="st0" d="M1949.3,934.6l61.7-161.7c.9-2.3,3.1-3.8,5.5-3.8h17.1c2.5,0,4.7,1.5,5.5,3.8l61.7,161.7c1.5,3.9-1.4,8-5.5,8h-19.7c-2.5,0-4.7-1.6-5.6-4l-10.6-30.3c-.8-2.4-3.1-4-5.6-4h-58.3c-2.5,0-4.7,1.6-5.6,4l-10.6,30.3c-.8,2.4-3.1,4-5.6,4h-19c-4.1,0-7-4.2-5.5-8h0ZM2009.2,878h31.3c4.1,0,6.9-4,5.6-7.9l-15.5-44.1c-1.8-5.3-9.3-5.3-11.1,0l-15.8,44.1c-1.4,3.9,1.5,7.9,5.6,7.9h0Z"/>
  <path class="st0" d="M799.3,428.6l133.9-350.8c2-5,6.7-8.2,11.9-8.2h37.1c5.4,0,10.2,3.3,11.9,8.2l133.9,350.8c3.3,8.5-3,17.4-11.9,17.4h-42.7c-5.4,0-10.2-3.5-12.2-8.7l-23-65.7c-1.7-5.2-6.7-8.7-12.2-8.7h-126.5c-5.4,0-10.2,3.5-12.2,8.7l-23,65.7c-1.7,5.2-6.7,8.7-12.2,8.7h-41.2c-8.9,0-15.2-9.1-11.9-17.4h.2ZM929.3,305.6h67.9c8.9,0,15-8.7,12.2-17.1l-33.6-95.7c-3.9-11.5-20.2-11.5-24.1,0l-34.3,95.7c-3,8.5,3.3,17.1,12.2,17.1h-.2Z"/>
  <path class="st0" d="M1305.3,455c-34.1,0-64.4-8-91.1-24.3-26.7-16.1-47.5-39.1-62.7-68.6s-22.6-64.2-22.6-104.1,7.6-75.1,22.6-104.6c15-29.5,36-52.5,62.7-68.8,26.7-16.3,57.1-24.5,91.1-24.5s64.2,8.2,90.7,24.5c26.3,16.3,47.1,39.3,62.5,68.8,15.2,29.5,22.8,64.4,22.8,104.6s-7.6,74.4-22.8,104.1c-15.2,29.5-36,52.5-62.5,68.6-26.3,16.1-56.6,24.3-90.7,24.3ZM1305.3,394.7c22.6,0,42.1-5.6,58.6-16.9,16.5-11.3,29.3-27.3,38.4-48s13.7-44.5,13.7-71.8-4.6-51.6-13.7-72.3-21.9-36.7-38.4-48c-16.5-11.3-36-16.9-58.6-16.9s-41.9,5.6-58.6,16.9c-16.9,11.3-29.9,27.3-39.1,48-9.1,20.6-13.7,44.7-13.7,72.3s4.6,51.2,13.7,71.8c9.1,20.6,22.1,36.7,39.1,48,16.9,11.3,36.5,16.9,58.6,16.9Z"/>
  <path class="st0" d="M1545.3,433.5V82.7c0-7.2,5.6-12.8,12.8-12.8h36.2c7.2,0,12.8,5.6,12.8,12.8v116.1c0,11.9,14.8,17.4,22.6,8.5l114.6-133c2.4-2.8,6.1-4.6,9.8-4.6h43.8c11.1,0,16.9,13,9.8,21.3l-127.4,146.2c-4.1,4.6-4.1,11.5-.4,16.3l133.4,172.3c6.5,8.5.4,20.6-10.2,20.6h-46.9c-4.1,0-7.8-2-10.4-5.2l-115.6-156.2c-7.4-10-23.2-4.8-23.2,7.6v140.8c0,7.2-5.6,12.8-12.8,12.8h-36.2c-7.2,0-12.8-5.6-12.8-12.8l.2.2Z"/>
  <path class="st0" d="M1891.2,433.5V82.7c0-7.2,5.6-12.8,12.8-12.8h36.2c7.2,0,12.8,5.6,12.8,12.8v350.8c0,7.2-5.6,12.8-12.8,12.8h-36.2c-7.2,0-12.8-5.6-12.8-12.8h0Z"/>
  <path class="st0" d="M145,326.2l-34.8,120.8c-1.1,3.9,1,8,4.2,8h14.3c1.9,0,3.6-1.6,4.2-4l2.9-11c.6-2.4,1.3-5.1,3.2-5.1l56.2-.4c1.9,0,3.3,5.2,4,7.6l2.4,8.9c.6,2.4,2.3,4,4.2,4h14.9c3.1,0,5.3-4.2,4.2-8l-35.1-121.7c-7.5,2.3-15.6,3.6-23.9,3.6s-14.2-1-20.8-2.7h0ZM169.7,377l6.5,24.4c.6,2.1-.6,4.3-2.3,4.3h-13.1c-1.7,0-2.9-2.2-2.3-4.4l6.6-24.4c.8-2.9,3.9-2.9,4.7,0h0Z"/>
  <path class="st0" d="M271.3,180.3c1.9-6.1,2.9-12.6,2.9-19.3,0-27.4-16.5-50.9-40.1-61.2h0c0-36.9-29.8-66.8-66.7-66.8s-66.1,29.3-66.6,65.6c-25.2,9.5-43,33.8-43,62.3s1.1,14.1,3.2,20.5c-21.9,10.9-36.9,33.5-36.9,59.7s29.8,66.7,66.7,66.7,27.5-4.5,38.4-12.2c10.8,7.6,24.1,12.2,38.4,12.2s27.5-4.5,38.4-12.2c10.8,7.6,24.1,12.2,38.4,12.2,36.8,0,66.7-29.8,66.7-66.7s-16.2-50.4-39.4-60.8h-.4ZM204,216.3h-27.4v49.1c0,4.2-3.4,7.6-7.6,7.6h-2c-4.2,0-7.6-3.4-7.6-7.6v-49.1h-27.4c-4.7,0-8.6-3.8-8.6-8.6s3.8-8.6,8.6-8.6h71.8c4.7,0,8.6,3.8,8.6,8.6s-3.8,8.6-8.6,8.6h.2Z"/>
  <rect class="st0" x="684" y="384.7" width="60.1" height="60.1" rx="6.3" ry="6.3"/>
</svg>