<?xml version="1.0" encoding="UTF-8"?>
<svg id="_レイヤー_1" data-name="レイヤー 1" xmlns="http://www.w3.org/2000/svg" width="1200" height="500" viewBox="0 0 1200 500">
  <defs>
    <style>
      .cls-1 {
        fill: none;
        stroke-linecap: round;
        stroke-linejoin: round;
      }

      .cls-1, .cls-2 {
        stroke: #b4dfe6;
        stroke-width: 17px;
      }

      .cls-2 {
        stroke-miterlimit: 10;
      }

      .cls-2, .cls-3 {
        fill: #2c3f4d;
      }
    </style>
  </defs>
  <path class="cls-3" d="M374.9,206.9V66c0-1.7-1.4-3-3-3h-46.2c-1.7,0-3-1.4-3-3v-20.4c0-1.7,1.4-3,3-3h127.3c1.7,0,3,1.4,3,3v20.4c0,1.7-1.4,3-3,3h-46c-1.7,0-3,1.4-3,3v140.9c0,1.7-1.4,3-3,3h-22.9c-1.7,0-3-1.4-3-3Z"/>
  <path class="cls-3" d="M443.4,201.9l61.7-161.7c.9-2.3,3.1-3.8,5.5-3.8h17.1c2.5,0,4.7,1.5,5.5,3.8l61.7,161.7c1.5,3.9-1.4,8-5.5,8h-19.7c-2.5,0-4.7-1.6-5.6-4l-10.6-30.3c-.8-2.4-3.1-4-5.6-4h-58.3c-2.5,0-4.7,1.6-5.6,4l-10.6,30.3c-.8,2.4-3.1,4-5.6,4h-19c-4.1,0-7-4.2-5.5-8ZM503.3,145.3h31.3c4.1,0,6.9-4,5.6-7.9l-15.5-44.1c-1.8-5.3-9.3-5.3-11.1,0l-15.8,44.1c-1.4,3.9,1.5,7.9,5.6,7.9Z"/>
  <path class="cls-3" d="M618.1,204.1V42.3c0-3.3,2.6-5.9,5.9-5.9h16.7c3.3,0,5.9,2.6,5.9,5.9v53.5c0,5.5,6.8,8,10.4,3.9l52.8-61.3c1.1-1.3,2.8-2.1,4.5-2.1h20.2c5.1,0,7.8,6,4.5,9.8l-58.7,67.4c-1.9,2.1-1.9,5.3-.2,7.5l61.5,79.4c3,3.9.2,9.5-4.7,9.5h-21.6c-1.9,0-3.6-.9-4.8-2.4l-53.3-72c-3.4-4.6-10.7-2.2-10.7,3.5v64.9c0,3.3-2.6,5.9-5.9,5.9h-16.7c-3.3,0-5.9-2.6-5.9-5.9Z"/>
  <path class="cls-3" d="M757.3,201.9l61.7-161.7c.9-2.3,3.1-3.8,5.5-3.8h17.1c2.5,0,4.7,1.5,5.5,3.8l61.7,161.7c1.5,3.9-1.4,8-5.5,8h-19.7c-2.5,0-4.7-1.6-5.6-4l-10.6-30.3c-.8-2.4-3.1-4-5.6-4h-58.3c-2.5,0-4.7,1.6-5.6,4l-10.6,30.3c-.8,2.4-3.1,4-5.6,4h-19c-4.1,0-7-4.2-5.5-8ZM817.2,145.3h31.3c4.1,0,6.9-4,5.6-7.9l-15.5-44.1c-1.8-5.3-9.3-5.3-11.1,0l-15.8,44.1c-1.4,3.9,1.5,7.9,5.6,7.9Z"/>
  <path class="cls-3" d="M952.9,204.1v-66.1c0-1-.3-2.1-.8-3l-52.3-89.6c-2.3-3.9.5-8.9,5.1-8.9h19.5c2.1,0,4.1,1.1,5.1,3l32.8,56.8c2.3,4,8,3.9,10.3,0l32.4-56.7c1.1-1.8,3-3,5.1-3h20c4.6,0,7.4,5,5.1,8.9l-52.5,89.6c-.5.9-.8,1.9-.8,3v66.1c0,3.3-2.6,5.9-5.9,5.9h-17.2c-3.3,0-5.9-2.6-5.9-5.9Z"/>
  <path class="cls-3" d="M1025.6,201.9l61.7-161.7c.9-2.3,3.1-3.8,5.5-3.8h17.1c2.5,0,4.7,1.5,5.5,3.8l61.7,161.7c1.5,3.9-1.4,8-5.5,8h-19.7c-2.5,0-4.7-1.6-5.6-4l-10.6-30.3c-.8-2.4-3.1-4-5.6-4h-58.3c-2.5,0-4.7,1.6-5.6,4l-10.6,30.3c-.8,2.4-3.1,4-5.6,4h-19c-4.1,0-7-4.2-5.5-8ZM1085.5,145.3h31.3c4.1,0,6.9-4,5.6-7.9l-15.5-44.1c-1.8-5.3-9.3-5.3-11.1,0l-15.8,44.1c-1.4,3.9,1.5,7.9,5.6,7.9Z"/>
  <path class="cls-3" d="M321.2,447l61.7-161.7c.9-2.3,3.1-3.8,5.5-3.8h17.1c2.5,0,4.7,1.5,5.5,3.8l61.7,161.7c1.5,3.9-1.4,8-5.5,8h-19.7c-2.5,0-4.7-1.6-5.6-4l-10.6-30.3c-.8-2.4-3.1-4-5.6-4h-58.3c-2.5,0-4.7,1.6-5.6,4l-10.6,30.3c-.8,2.4-3.1,4-5.6,4h-19c-4.1,0-7-4.2-5.5-8ZM381.1,390.3h31.3c4.1,0,6.9-4,5.6-7.9l-15.5-44.1c-1.8-5.3-9.3-5.3-11.1,0l-15.8,44.1c-1.4,3.9,1.5,7.9,5.6,7.9Z"/>
  <path class="cls-3" d="M110.2,447l46.7-161.7c.7-2.3,2.3-3.8,4.2-3.8h13c1.9,0,3.5,1.5,4.2,3.8l46.7,161.7c1.1,3.9-1,8-4.2,8h-14.9c-1.9,0-3.6-1.6-4.2-4l-2.4-8.9c-.6-2.4-2.1-7.6-4-7.6l-56.2.4c-1.9,0-2.6,2.8-3.2,5.1l-2.9,11c-.6,2.4-2.3,4-4.2,4h-14.3c-3.1,0-5.3-4.2-4.2-8ZM160.8,405.7h13.1c1.7,0,2.9-2.2,2.3-4.3l-6.5-24.4c-.8-2.9-3.9-2.9-4.7,0l-6.6,24.4c-.6,2.1.6,4.4,2.3,4.4Z"/>
  <path class="cls-3" d="M561.1,459c-15.7,0-29.7-3.7-42-11.2-12.3-7.4-21.9-18-28.9-31.6s-10.4-29.6-10.4-48,3.5-34.6,10.4-48.2c6.9-13.6,16.6-24.2,28.9-31.7,12.3-7.5,26.3-11.3,42-11.3s29.6,3.8,41.8,11.3c12.1,7.5,21.7,18.1,28.8,31.7,7,13.6,10.5,29.7,10.5,48.2s-3.5,34.3-10.5,48c-7,13.6-16.6,24.2-28.8,31.6-12.1,7.4-26.1,11.2-41.8,11.2ZM561.1,431.2c10.4,0,19.4-2.6,27-7.8,7.6-5.2,13.5-12.6,17.7-22.1,4.2-9.5,6.3-20.5,6.3-33.1s-2.1-23.8-6.3-33.3c-4.2-9.5-10.1-16.9-17.7-22.1-7.6-5.2-16.6-7.8-27-7.8s-19.3,2.6-27,7.8c-7.8,5.2-13.8,12.6-18,22.1-4.2,9.5-6.3,20.6-6.3,33.3s2.1,23.6,6.3,33.1c4.2,9.5,10.2,16.9,18,22.1,7.8,5.2,16.8,7.8,27,7.8Z"/>
  <path class="cls-3" d="M668.7,449.1v-161.7c0-3.3,2.6-5.9,5.9-5.9h16.7c3.3,0,5.9,2.6,5.9,5.9v53.5c0,5.5,6.8,8,10.4,3.9l52.8-61.3c1.1-1.3,2.8-2.1,4.5-2.1h20.2c5.1,0,7.8,6,4.5,9.8l-58.7,67.4c-1.9,2.1-1.9,5.3-.2,7.5l61.5,79.4c3,3.9.2,9.5-4.7,9.5h-21.6c-1.9,0-3.6-.9-4.8-2.4l-53.3-72c-3.4-4.6-10.7-2.2-10.7,3.5v64.9c0,3.3-2.6,5.9-5.9,5.9h-16.7c-3.3,0-5.9-2.6-5.9-5.9Z"/>
  <path class="cls-3" d="M820,449.1v-161.7c0-3.3,2.6-5.9,5.9-5.9h16.7c3.3,0,5.9,2.6,5.9,5.9v161.7c0,3.3-2.6,5.9-5.9,5.9h-16.7c-3.3,0-5.9-2.6-5.9-5.9Z"/>
  <path class="cls-2" d="M269.8,172.6c1.9-6.1,2.9-12.6,2.9-19.3,0-27.4-16.5-50.9-40.1-61.2,0,0,0,0,0-.1,0-36.8-29.8-66.7-66.7-66.7s-66.1,29.3-66.6,65.6c-25.2,9.5-43,33.8-43,62.3s1.1,14.1,3.2,20.5c-21.9,10.9-36.9,33.5-36.9,59.7s29.8,66.7,66.7,66.7,27.5-4.5,38.4-12.2c10.8,7.6,24.1,12.2,38.4,12.2s27.5-4.5,38.4-12.2c10.8,7.6,24.1,12.2,38.4,12.2,36.8,0,66.7-29.8,66.7-66.7s-16.2-50.4-39.4-60.8Z"/>
  <line class="cls-1" x1="165.8" y1="239" x2="165.8" y2="196.8"/>
  <line class="cls-1" x1="201.7" y1="189.8" x2="130" y2="189.8"/>
  <g>
    <path class="cls-3" d="M925,362.3v-84s38.4,0,38.4,0c7.8,0,14.1,1.8,18.7,5.5,4.6,3.7,6.9,9.9,6.9,18.6,0,8.7-2.3,15-6.9,18.7-4.6,3.8-10.8,5.6-18.7,5.6h-24.6s0,35.5,0,35.5h-13.8ZM938.8,313.9h22.7c4.1,0,7.2-.9,9.5-2.6,2.2-1.8,3.4-4.7,3.4-8.8,0-4-1.1-6.9-3.4-8.6-2.2-1.8-5.4-2.6-9.5-2.6h-22.7s0,22.7,0,22.7Z"/>
    <path class="cls-3" d="M1031.6,363.6c-5.3,0-10-1.3-14.2-3.8-4.2-2.5-7.5-6-10-10.6-2.4-4.5-3.7-9.8-3.7-15.9,0-6.1,1.2-11.4,3.7-15.9,2.4-4.5,5.8-8,10-10.6,4.2-2.5,8.9-3.8,14.2-3.8,5.4,0,10.3,1.3,14.5,3.8s7.5,6,9.9,10.6c2.4,4.5,3.6,9.8,3.6,15.9,0,6.1-1.2,11.4-3.6,15.9-2.4,4.5-5.7,8-9.9,10.6-4.2,2.5-9,3.8-14.5,3.8ZM1031.6,351.4c4.2,0,7.7-1.6,10.4-4.7,2.7-3.1,4-7.6,4-13.3,0-5.8-1.3-10.2-4-13.3-2.7-3.1-6.1-4.7-10.4-4.7-4.2,0-7.6,1.6-10.2,4.7s-4,7.6-4,13.3c0,5.8,1.3,10.2,4,13.3,2.6,3.1,6,4.7,10.2,4.7Z"/>
    <path class="cls-3" d="M1078.4,362.3v-57.7s12.2,0,12.2,0l.8,8.2c1.4-2.9,3.7-5.2,6.8-7,3.1-1.8,6.3-2.6,9.8-2.6,1.4,0,2.6,0,3.7.2,1.1.2,2.1.4,2.9.6v13.1c-1-.3-2.3-.6-3.7-.8-1.4-.2-3-.3-4.9-.3-3.9,0-7.3,1.3-10,3.8-2.8,2.6-4.1,6.2-4.1,10.8v31.7s-13.6,0-13.6,0Z"/>
    <path class="cls-3" d="M1155.1,363.6c-5.7,0-10-1-13-3.1-3-2.1-4.5-6.2-4.5-12.5v-31.8s-11,0-11,0v-11.6s11,0,11,0v-20.3s13.4,0,13.4,0v20.3s16,0,16,0v11.6s-16,0-16,0v28.3c0,2.7.7,4.6,2,5.5,1.3,1,3.2,1.4,5.7,1.4,1.5,0,3.1-.2,4.6-.7,1.6-.5,2.8-1,3.7-1.4v12.4c-1.4.6-3.2,1-5.4,1.4-2.2.4-4.3.5-6.5.5Z"/>
    <path class="cls-3" d="M929.9,458.9v-46.1s-10.9,0-10.9,0v-11.6s10.9,0,10.9,0v-10.3c0-7.1,1.6-12,4.9-14.8,3.3-2.7,8-4.1,14-4.1,1.9,0,3.9.1,5.8.4,2,.2,3.5.5,4.7.8v12.2c-1.1-.4-2.3-.7-3.7-1-1.3-.3-2.7-.4-4-.4-2.7,0-4.8.7-6.2,2-1.4,1.3-2.2,3.5-2.2,6.5v8.6s16.1,0,16.1,0v11.6s-16.1,0-16.1,0v46.1s-13.4,0-13.4,0Z"/>
    <path class="cls-3" d="M997.8,460.2c-5.3,0-10-1.3-14.2-3.8-4.2-2.5-7.5-6-10-10.6-2.4-4.5-3.7-9.8-3.7-15.9,0-6.1,1.2-11.4,3.7-15.9,2.4-4.5,5.8-8,10-10.6,4.2-2.5,8.9-3.8,14.2-3.8,5.4,0,10.3,1.3,14.5,3.8,4.2,2.5,7.5,6,9.9,10.6,2.4,4.5,3.6,9.8,3.6,15.9,0,6.1-1.2,11.4-3.6,15.9-2.4,4.5-5.7,8-9.9,10.6-4.2,2.5-9,3.8-14.5,3.8ZM997.8,448c4.2,0,7.7-1.6,10.4-4.7,2.7-3.1,4-7.6,4-13.3,0-5.8-1.3-10.2-4-13.3-2.7-3.1-6.1-4.7-10.4-4.7-4.2,0-7.6,1.6-10.2,4.7-2.6,3.1-4,7.6-4,13.3,0,5.8,1.3,10.2,4,13.3,2.6,3.1,6,4.7,10.2,4.7Z"/>
    <path class="cls-3" d="M1042.2,458.9v-85.6s13.5,0,13.5,0v85.6s-13.5,0-13.5,0Z"/>
    <path class="cls-3" d="M1083.7,391.7c-2.3,0-4.3-.8-6-2.5-1.7-1.7-2.5-3.7-2.5-6,0-2.3.8-4.3,2.5-6,1.7-1.7,3.7-2.5,6-2.5,2.3,0,4.3.8,6,2.5,1.7,1.7,2.5,3.7,2.5,6,0,2.3-.8,4.3-2.5,6-1.7,1.7-3.7,2.5-6,2.5ZM1077.1,458.9v-57.7s13.4,0,13.4,0v57.7s-13.4,0-13.4,0Z"/>
    <path class="cls-3" d="M1136.5,460.2c-5.3,0-10-1.3-14.2-3.8-4.2-2.5-7.5-6-10-10.6-2.4-4.5-3.7-9.8-3.7-15.9,0-6.1,1.2-11.4,3.7-15.9,2.4-4.5,5.8-8,10-10.6,4.2-2.5,8.9-3.8,14.2-3.8,5.4,0,10.3,1.3,14.5,3.8,4.2,2.5,7.5,6,9.9,10.6,2.4,4.5,3.6,9.8,3.6,15.9,0,6.1-1.2,11.4-3.6,15.9-2.4,4.5-5.7,8-9.9,10.6-4.2,2.5-9,3.8-14.5,3.8ZM1136.5,447.9c4.2,0,7.7-1.6,10.4-4.7,2.7-3.1,4-7.6,4-13.3,0-5.8-1.3-10.2-4-13.3-2.7-3.1-6.1-4.7-10.4-4.7-4.2,0-7.6,1.6-10.2,4.7-2.6,3.1-4,7.6-4,13.3,0,5.8,1.3,10.2,4,13.3,2.6,3.1,6,4.7,10.2,4.7Z"/>
  </g>
</svg>